<svg xmlns="http://www.w3.org/2000/svg" fill="currentColor" viewBox="0 0 512 512">
                <g>
                  <path d="M216,456H160a8,8,0,0,0,0,16h56a8,8,0,0,0,0-16Z"></path>
                  <path d="M248,456h-8a8,8,0,0,0,0,16h8a8,8,0,0,0,0-16Z"></path>
                  <path d="M442.68,363.48,392,312.8V165.27l22.4-22.4a7.953,7.953,0,0,0,1.93-3.13L433.3,88.82A8,8,0,0,0,423.18,78.7L392,89.09V40A32.042,32.042,0,0,0,360,8H152a32.042,32.042,0,0,0-32,32V86.53L69.32,137.21a8,8,0,0,0,0,11.31L120,199.2V346.74L80.63,386.11A32.005,32.005,0,0,0,120,436.01V472a32.042,32.042,0,0,0,32,32H360a32.042,32.042,0,0,0,32-32V425.47l50.68-50.68A8,8,0,0,0,442.68,363.48ZM413.06,98.94l-4.99,14.97-9.98-9.98Zm-31.95,10.64,21.31,21.31-.67,2-4.32,4.32-22.64-22.64,4.32-4.32ZM306.92,227.72l-5.66-5.66,67.88-67.88a8,8,0,1,0-11.32-11.32l-67.88,67.88-5.66-5.65,79.2-79.2,22.63,22.64-7.74,7.74-.05.05ZM376,181.27V296.8l-57.76-57.76ZM293.44,24l-4.5,16H222.25l-4-16ZM136,40a16.021,16.021,0,0,1,16-16h49.75l6.49,25.94A8,8,0,0,0,216,56h79a8,8,0,0,0,7.7-5.83L310.06,24H360a16.021,16.021,0,0,1,16,16V94.42l-3.74,1.25a7.953,7.953,0,0,0-3.13,1.93l-96.16,96.17L148.52,69.32a8,8,0,0,0-11.31,0L136,70.53ZM114.59,420.05a16.005,16.005,0,1,1-22.64-22.63l11.31-11.32,22.64,22.64Zm-.01-45.26,5.66-5.65,22.62,22.62-5.65,5.66Zm90.51-90.5,22.63,22.63-73.54,73.54-22.63-22.64ZM136,330.74V215.2l57.77,57.77ZM376,472a16.021,16.021,0,0,1-16,16H152a16.021,16.021,0,0,1-16-16V421.26L239.04,318.24,363.48,442.68a8,8,0,0,0,11.31,0l1.21-1.21Zm-6.86-46.29-22.63-22.63,5.66-5.66a8,8,0,0,0-11.32-11.31l-5.65,5.65-11.32-11.31,16.97-16.97a8,8,0,0,0-11.31-11.31l-16.97,16.97-11.32-11.32,5.66-5.65a8,8,0,0,0-11.31-11.32l-5.66,5.66L278.63,335.2l16.97-16.97a8,8,0,0,0-11.32-11.32l-16.97,16.97L256,312.57l5.66-5.66a8,8,0,1,0-11.32-11.31l-5.65,5.65a.035.035,0,0,1-.02-.01l-11.3-11.3,16.97-16.97a8,8,0,0,0-11.31-11.31l-16.97,16.97-11.29-11.29c-.01-.01-.01-.02-.02-.03l5.65-5.65a8,8,0,1,0-11.31-11.32L199.43,256l-11.31-11.31,16.97-16.97a8,8,0,0,0-11.32-11.32L176.8,233.37l-11.31-11.31,5.66-5.66a8,8,0,0,0-11.32-11.31l-5.65,5.66-11.32-11.32,16.97-16.97a8,8,0,0,0-11.31-11.31l-16.97,16.97L120.24,176.8l5.65-5.65a8,8,0,0,0-11.31-11.32l-5.66,5.66L86.29,142.86l39.6-39.59L408.73,386.11Zm50.91-50.92L137.21,91.95l5.65-5.66L267.29,210.72c.01.01.01.02.02.03s.02.01.03.02l16.93,16.94c.01,0,.01,0,.01.01s.01,0,.01.01l16.95,16.94c.01.01.01.02.02.03s.02.01.03.02l77.02,77.02a.234.234,0,0,0,.07.07l47.33,47.33Z"></path>
                </g>
              </svg>