<svg width="162" height="72" viewBox="0 0 162 72" fill="none" xmlns="http://www.w3.org/2000/svg">
<g filter="url(#filter0_d_10_47)">
<mask id="path-1-inside-1_10_47" fill="white">
<path d="M52.9098 51.3636V63H51.5462L45.2053 53.8636H45.0916V63H43.6825V51.3636H45.0462L51.4098 60.5227H51.5234V51.3636H52.9098ZM55.7294 63V51.3636H57.1385V56.5455H63.343V51.3636H64.7521V63H63.343V57.7955H57.1385V63H55.7294ZM68.0504 63H66.5732L70.8459 51.3636H72.3004L76.5732 63H75.0959L71.6186 53.2045H71.5277L68.0504 63ZM68.5959 58.4545H74.5504V59.7045H68.5959V58.4545ZM76.3899 52.6136V51.3636H85.1172V52.6136H81.4581V63H80.049V52.6136H76.3899ZM91.7919 63V51.3636H93.201V56.5455H99.4055V51.3636H100.815V63H99.4055V57.7955H93.201V63H91.7919ZM111.272 51.3636H112.681V59.0682C112.681 59.8636 112.494 60.5739 112.119 61.1989C111.747 61.8201 111.223 62.3106 110.545 62.6705C109.867 63.0265 109.071 63.2045 108.158 63.2045C107.246 63.2045 106.45 63.0265 105.772 62.6705C105.094 62.3106 104.567 61.8201 104.192 61.1989C103.821 60.5739 103.636 59.8636 103.636 59.0682V51.3636H105.045V58.9545C105.045 59.5227 105.17 60.0284 105.42 60.4716C105.67 60.911 106.026 61.2576 106.488 61.5114C106.954 61.7614 107.511 61.8864 108.158 61.8864C108.806 61.8864 109.363 61.7614 109.829 61.5114C110.295 61.2576 110.651 60.911 110.897 60.4716C111.147 60.0284 111.272 59.5227 111.272 58.9545V51.3636ZM114.495 51.3636H116.109L119.336 56.7955H119.472L122.7 51.3636H124.313L120.109 58.2045V63H118.7V58.2045L114.495 51.3636Z"/>
</mask>
<path d="M52.9098 51.3636V63H51.5462L45.2053 53.8636H45.0916V63H43.6825V51.3636H45.0462L51.4098 60.5227H51.5234V51.3636H52.9098ZM55.7294 63V51.3636H57.1385V56.5455H63.343V51.3636H64.7521V63H63.343V57.7955H57.1385V63H55.7294ZM68.0504 63H66.5732L70.8459 51.3636H72.3004L76.5732 63H75.0959L71.6186 53.2045H71.5277L68.0504 63ZM68.5959 58.4545H74.5504V59.7045H68.5959V58.4545ZM76.3899 52.6136V51.3636H85.1172V52.6136H81.4581V63H80.049V52.6136H76.3899ZM91.7919 63V51.3636H93.201V56.5455H99.4055V51.3636H100.815V63H99.4055V57.7955H93.201V63H91.7919ZM111.272 51.3636H112.681V59.0682C112.681 59.8636 112.494 60.5739 112.119 61.1989C111.747 61.8201 111.223 62.3106 110.545 62.6705C109.867 63.0265 109.071 63.2045 108.158 63.2045C107.246 63.2045 106.45 63.0265 105.772 62.6705C105.094 62.3106 104.567 61.8201 104.192 61.1989C103.821 60.5739 103.636 59.8636 103.636 59.0682V51.3636H105.045V58.9545C105.045 59.5227 105.17 60.0284 105.42 60.4716C105.67 60.911 106.026 61.2576 106.488 61.5114C106.954 61.7614 107.511 61.8864 108.158 61.8864C108.806 61.8864 109.363 61.7614 109.829 61.5114C110.295 61.2576 110.651 60.911 110.897 60.4716C111.147 60.0284 111.272 59.5227 111.272 58.9545V51.3636ZM114.495 51.3636H116.109L119.336 56.7955H119.472L122.7 51.3636H124.313L120.109 58.2045V63H118.7V58.2045L114.495 51.3636Z" fill="#1E3A8A"/>
<path d="M52.9098 51.3636H53.9098V50.3636H52.9098V51.3636ZM52.9098 63V64H53.9098V63H52.9098ZM51.5462 63L50.7246 63.5702L51.023 64H51.5462V63ZM45.2053 53.8636L46.0268 53.2935L45.7285 52.8636H45.2053V53.8636ZM45.0916 53.8636V52.8636H44.0916V53.8636H45.0916ZM45.0916 63V64H46.0916V63H45.0916ZM43.6825 63H42.6825V64H43.6825V63ZM43.6825 51.3636V50.3636H42.6825V51.3636H43.6825ZM45.0462 51.3636L45.8674 50.793L45.5691 50.3636H45.0462V51.3636ZM51.4098 60.5227L50.5886 61.0933L50.8869 61.5227H51.4098V60.5227ZM51.5234 60.5227V61.5227H52.5234V60.5227H51.5234ZM51.5234 51.3636V50.3636H50.5234V51.3636H51.5234ZM52.9098 51.3636H51.9098V63H52.9098H53.9098V51.3636H52.9098ZM52.9098 63V62H51.5462V63V64H52.9098V63ZM51.5462 63L52.3677 62.4298L46.0268 53.2935L45.2053 53.8636L44.3837 54.4338L50.7246 63.5702L51.5462 63ZM45.2053 53.8636V52.8636H45.0916V53.8636V54.8636H45.2053V53.8636ZM45.0916 53.8636H44.0916V63H45.0916H46.0916V53.8636H45.0916ZM45.0916 63V62H43.6825V63V64H45.0916V63ZM43.6825 63H44.6825V51.3636H43.6825H42.6825V63H43.6825ZM43.6825 51.3636V52.3636H45.0462V51.3636V50.3636H43.6825V51.3636ZM45.0462 51.3636L44.2249 51.9342L50.5886 61.0933L51.4098 60.5227L52.231 59.9521L45.8674 50.793L45.0462 51.3636ZM51.4098 60.5227V61.5227H51.5234V60.5227V59.5227H51.4098V60.5227ZM51.5234 60.5227H52.5234V51.3636H51.5234H50.5234V60.5227H51.5234ZM51.5234 51.3636V52.3636H52.9098V51.3636V50.3636H51.5234V51.3636ZM55.7294 63H54.7294V64H55.7294V63ZM55.7294 51.3636V50.3636H54.7294V51.3636H55.7294ZM57.1385 51.3636H58.1385V50.3636H57.1385V51.3636ZM57.1385 56.5455H56.1385V57.5455H57.1385V56.5455ZM63.343 56.5455V57.5455H64.343V56.5455H63.343ZM63.343 51.3636V50.3636H62.343V51.3636H63.343ZM64.7521 51.3636H65.7521V50.3636H64.7521V51.3636ZM64.7521 63V64H65.7521V63H64.7521ZM63.343 63H62.343V64H63.343V63ZM63.343 57.7955H64.343V56.7955H63.343V57.7955ZM57.1385 57.7955V56.7955H56.1385V57.7955H57.1385ZM57.1385 63V64H58.1385V63H57.1385ZM55.7294 63H56.7294V51.3636H55.7294H54.7294V63H55.7294ZM55.7294 51.3636V52.3636H57.1385V51.3636V50.3636H55.7294V51.3636ZM57.1385 51.3636H56.1385V56.5455H57.1385H58.1385V51.3636H57.1385ZM57.1385 56.5455V57.5455H63.343V56.5455V55.5455H57.1385V56.5455ZM63.343 56.5455H64.343V51.3636H63.343H62.343V56.5455H63.343ZM63.343 51.3636V52.3636H64.7521V51.3636V50.3636H63.343V51.3636ZM64.7521 51.3636H63.7521V63H64.7521H65.7521V51.3636H64.7521ZM64.7521 63V62H63.343V63V64H64.7521V63ZM63.343 63H64.343V57.7955H63.343H62.343V63H63.343ZM63.343 57.7955V56.7955H57.1385V57.7955V58.7955H63.343V57.7955ZM57.1385 57.7955H56.1385V63H57.1385H58.1385V57.7955H57.1385ZM57.1385 63V62H55.7294V63V64H57.1385V63ZM68.0504 63V64H68.7566L68.9928 63.3345L68.0504 63ZM66.5732 63L65.6344 62.6553L65.1407 64H66.5732V63ZM70.8459 51.3636V50.3636H70.1478L69.9072 51.019L70.8459 51.3636ZM72.3004 51.3636L73.2391 51.019L72.9985 50.3636H72.3004V51.3636ZM76.5732 63V64H78.0056L77.5119 62.6553L76.5732 63ZM75.0959 63L74.1535 63.3345L74.3897 64H75.0959V63ZM71.6186 53.2045L72.561 52.87L72.3248 52.2045H71.6186V53.2045ZM71.5277 53.2045V52.2045H70.8215L70.5853 52.87L71.5277 53.2045ZM68.5959 58.4545V57.4545H67.5959V58.4545H68.5959ZM74.5504 58.4545H75.5504V57.4545H74.5504V58.4545ZM74.5504 59.7045V60.7045H75.5504V59.7045H74.5504ZM68.5959 59.7045H67.5959V60.7045H68.5959V59.7045ZM68.0504 63V62H66.5732V63V64H68.0504V63ZM66.5732 63L67.5119 63.3447L71.7846 51.7083L70.8459 51.3636L69.9072 51.019L65.6344 62.6553L66.5732 63ZM70.8459 51.3636V52.3636H72.3004V51.3636V50.3636H70.8459V51.3636ZM72.3004 51.3636L71.3617 51.7083L75.6344 63.3447L76.5732 63L77.5119 62.6553L73.2391 51.019L72.3004 51.3636ZM76.5732 63V62H75.0959V63V64H76.5732V63ZM75.0959 63L76.0383 62.6655L72.561 52.87L71.6186 53.2045L70.6762 53.5391L74.1535 63.3345L75.0959 63ZM71.6186 53.2045V52.2045H71.5277V53.2045V54.2045H71.6186V53.2045ZM71.5277 53.2045L70.5853 52.87L67.108 62.6655L68.0504 63L68.9928 63.3345L72.4701 53.5391L71.5277 53.2045ZM68.5959 58.4545V59.4545H74.5504V58.4545V57.4545H68.5959V58.4545ZM74.5504 58.4545H73.5504V59.7045H74.5504H75.5504V58.4545H74.5504ZM74.5504 59.7045V58.7045H68.5959V59.7045V60.7045H74.5504V59.7045ZM68.5959 59.7045H69.5959V58.4545H68.5959H67.5959V59.7045H68.5959ZM76.3899 52.6136H75.3899V53.6136H76.3899V52.6136ZM76.3899 51.3636V50.3636H75.3899V51.3636H76.3899ZM85.1172 51.3636H86.1172V50.3636H85.1172V51.3636ZM85.1172 52.6136V53.6136H86.1172V52.6136H85.1172ZM81.4581 52.6136V51.6136H80.4581V52.6136H81.4581ZM81.4581 63V64H82.4581V63H81.4581ZM80.049 63H79.049V64H80.049V63ZM80.049 52.6136H81.049V51.6136H80.049V52.6136ZM76.3899 52.6136H77.3899V51.3636H76.3899H75.3899V52.6136H76.3899ZM76.3899 51.3636V52.3636H85.1172V51.3636V50.3636H76.3899V51.3636ZM85.1172 51.3636H84.1172V52.6136H85.1172H86.1172V51.3636H85.1172ZM85.1172 52.6136V51.6136H81.4581V52.6136V53.6136H85.1172V52.6136ZM81.4581 52.6136H80.4581V63H81.4581H82.4581V52.6136H81.4581ZM81.4581 63V62H80.049V63V64H81.4581V63ZM80.049 63H81.049V52.6136H80.049H79.049V63H80.049ZM80.049 52.6136V51.6136H76.3899V52.6136V53.6136H80.049V52.6136ZM91.7919 63H90.7919V64H91.7919V63ZM91.7919 51.3636V50.3636H90.7919V51.3636H91.7919ZM93.201 51.3636H94.201V50.3636H93.201V51.3636ZM93.201 56.5455H92.201V57.5455H93.201V56.5455ZM99.4055 56.5455V57.5455H100.406V56.5455H99.4055ZM99.4055 51.3636V50.3636H98.4055V51.3636H99.4055ZM100.815 51.3636H101.815V50.3636H100.815V51.3636ZM100.815 63V64H101.815V63H100.815ZM99.4055 63H98.4055V64H99.4055V63ZM99.4055 57.7955H100.406V56.7955H99.4055V57.7955ZM93.201 57.7955V56.7955H92.201V57.7955H93.201ZM93.201 63V64H94.201V63H93.201ZM91.7919 63H92.7919V51.3636H91.7919H90.7919V63H91.7919ZM91.7919 51.3636V52.3636H93.201V51.3636V50.3636H91.7919V51.3636ZM93.201 51.3636H92.201V56.5455H93.201H94.201V51.3636H93.201ZM93.201 56.5455V57.5455H99.4055V56.5455V55.5455H93.201V56.5455ZM99.4055 56.5455H100.406V51.3636H99.4055H98.4055V56.5455H99.4055ZM99.4055 51.3636V52.3636H100.815V51.3636V50.3636H99.4055V51.3636ZM100.815 51.3636H99.8146V63H100.815H101.815V51.3636H100.815ZM100.815 63V62H99.4055V63V64H100.815V63ZM99.4055 63H100.406V57.7955H99.4055H98.4055V63H99.4055ZM99.4055 57.7955V56.7955H93.201V57.7955V58.7955H99.4055V57.7955ZM93.201 57.7955H92.201V63H93.201H94.201V57.7955H93.201ZM93.201 63V62H91.7919V63V64H93.201V63ZM111.272 51.3636V50.3636H110.272V51.3636H111.272ZM112.681 51.3636H113.681V50.3636H112.681V51.3636ZM112.119 61.1989L111.261 60.6844L111.26 60.6859L112.119 61.1989ZM110.545 62.6705L111.01 63.5558L111.014 63.5538L110.545 62.6705ZM105.772 62.6705L105.303 63.5538L105.307 63.5558L105.772 62.6705ZM104.192 61.1989L103.333 61.7095L103.336 61.7157L104.192 61.1989ZM103.636 51.3636V50.3636H102.636V51.3636H103.636ZM105.045 51.3636H106.045V50.3636H105.045V51.3636ZM105.42 60.4716L104.549 60.9629L104.551 60.9661L105.42 60.4716ZM106.488 61.5114L106.007 62.3879L106.015 62.3925L106.488 61.5114ZM109.829 61.5114L110.302 62.3925L110.307 62.3895L109.829 61.5114ZM110.897 60.4716L110.026 59.9803L110.025 59.9828L110.897 60.4716ZM111.272 51.3636V52.3636H112.681V51.3636V50.3636H111.272V51.3636ZM112.681 51.3636H111.681V59.0682H112.681H113.681V51.3636H112.681ZM112.681 59.0682H111.681C111.681 59.6995 111.534 60.2288 111.261 60.6844L112.119 61.1989L112.976 61.7134C113.453 60.9189 113.681 60.0278 113.681 59.0682H112.681ZM112.119 61.1989L111.26 60.6859C110.988 61.1408 110.603 61.5075 110.076 61.7871L110.545 62.6705L111.014 63.5538C111.843 63.1138 112.506 62.4994 112.977 61.7118L112.119 61.1989ZM110.545 62.6705L110.08 61.7851C109.57 62.0527 108.94 62.2045 108.158 62.2045V63.2045V64.2045C109.202 64.2045 110.163 64.0004 111.01 63.5558L110.545 62.6705ZM108.158 63.2045V62.2045C107.377 62.2045 106.746 62.0527 106.237 61.7851L105.772 62.6705L105.307 63.5558C106.154 64.0004 107.114 64.2045 108.158 64.2045V63.2045ZM105.772 62.6705L106.241 61.7871C105.713 61.507 105.325 61.1392 105.049 60.6821L104.192 61.1989L103.336 61.7157C103.81 62.5009 104.475 63.1142 105.303 63.5538L105.772 62.6705ZM104.192 61.1989L105.052 60.6882C104.781 60.2321 104.636 59.7014 104.636 59.0682H103.636H102.636C102.636 60.0259 102.861 60.9156 103.333 61.7095L104.192 61.1989ZM103.636 59.0682H104.636V51.3636H103.636H102.636V59.0682H103.636ZM103.636 51.3636V52.3636H105.045V51.3636V50.3636H103.636V51.3636ZM105.045 51.3636H104.045V58.9545H105.045H106.045V51.3636H105.045ZM105.045 58.9545H104.045C104.045 59.6744 104.205 60.3529 104.549 60.9629L105.42 60.4716L106.291 59.9803C106.135 59.7039 106.045 59.3711 106.045 58.9545H105.045ZM105.42 60.4716L104.551 60.9661C104.896 61.5733 105.39 62.0491 106.007 62.3879L106.488 61.5114L106.969 60.6348C106.662 60.4661 106.443 60.2486 106.289 59.9771L105.42 60.4716ZM106.488 61.5114L106.015 62.3925C106.656 62.7362 107.382 62.8864 108.158 62.8864V61.8864V60.8864C107.639 60.8864 107.252 60.7865 106.961 60.6302L106.488 61.5114ZM108.158 61.8864V62.8864C108.934 62.8864 109.661 62.7362 110.302 62.3925L109.829 61.5114L109.356 60.6302C109.065 60.7865 108.678 60.8864 108.158 60.8864V61.8864ZM109.829 61.5114L110.307 62.3895C110.929 62.0507 111.426 61.5731 111.769 60.9604L110.897 60.4716L110.025 59.9828C109.876 60.2489 109.66 60.4645 109.35 60.6332L109.829 61.5114ZM110.897 60.4716L111.768 60.9629C112.112 60.3529 112.272 59.6744 112.272 58.9545H111.272H110.272C110.272 59.3711 110.182 59.7039 110.026 59.9803L110.897 60.4716ZM111.272 58.9545H112.272V51.3636H111.272H110.272V58.9545H111.272ZM114.495 51.3636V50.3636H112.707L113.643 51.8873L114.495 51.3636ZM116.109 51.3636L116.968 50.8528L116.678 50.3636H116.109V51.3636ZM119.336 56.7955L118.476 57.3062L118.767 57.7955H119.336V56.7955ZM119.472 56.7955V57.7955H120.041L120.332 57.3062L119.472 56.7955ZM122.7 51.3636V50.3636H122.131L121.84 50.8528L122.7 51.3636ZM124.313 51.3636L125.165 51.8873L126.102 50.3636H124.313V51.3636ZM120.109 58.2045L119.257 57.6809L119.109 57.9218V58.2045H120.109ZM120.109 63V64H121.109V63H120.109ZM118.7 63H117.7V64H118.7V63ZM118.7 58.2045H119.7V57.9218L119.552 57.6809L118.7 58.2045ZM114.495 51.3636V52.3636H116.109V51.3636V50.3636H114.495V51.3636ZM116.109 51.3636L115.249 51.8744L118.476 57.3062L119.336 56.7955L120.196 56.2847L116.968 50.8528L116.109 51.3636ZM119.336 56.7955V57.7955H119.472V56.7955V55.7955H119.336V56.7955ZM119.472 56.7955L120.332 57.3062L123.559 51.8744L122.7 51.3636L121.84 50.8528L118.613 56.2847L119.472 56.7955ZM122.7 51.3636V52.3636H124.313V51.3636V50.3636H122.7V51.3636ZM124.313 51.3636L123.461 50.84L119.257 57.6809L120.109 58.2045L120.961 58.7282L125.165 51.8873L124.313 51.3636ZM120.109 58.2045H119.109V63H120.109H121.109V58.2045H120.109ZM120.109 63V62H118.7V63V64H120.109V63ZM118.7 63H119.7V58.2045H118.7H117.7V63H118.7ZM118.7 58.2045L119.552 57.6809L115.347 50.84L114.495 51.3636L113.643 51.8873L117.848 58.7282L118.7 58.2045Z" fill="#FEC544" mask="url(#path-1-inside-1_10_47)"/>
<path d="M20.8184 5L7 23.0673L20.8184 41.1346" stroke="#FEC544" stroke-width="4"/>
<path d="M34.2556 41.1346V5L75.7109 41.1346V5" stroke="#FEC544" stroke-width="4"/>
<path d="M87.7186 5V41.1346M87.7186 23.0673H129.174M129.174 5V41.1346" stroke="#FEC544" stroke-width="4"/>
<path d="M141.182 5L155 23.0673L141.182 41.1346" stroke="#FEC544" stroke-width="4"/>
</g>
<defs>
<filter id="filter0_d_10_47" x="0.482086" y="0.603561" width="161.036" height="70.601" filterUnits="userSpaceOnUse" color-interpolation-filters="sRGB">
<feFlood flood-opacity="0" result="BackgroundImageFix"/>
<feColorMatrix in="SourceAlpha" type="matrix" values="0 0 0 0 0 0 0 0 0 0 0 0 0 0 0 0 0 0 127 0" result="hardAlpha"/>
<feOffset dy="4"/>
<feGaussianBlur stdDeviation="2"/>
<feComposite in2="hardAlpha" operator="out"/>
<feColorMatrix type="matrix" values="0 0 0 0 0 0 0 0 0 0 0 0 0 0 0 0 0 0 0.25 0"/>
<feBlend mode="normal" in2="BackgroundImageFix" result="effect1_dropShadow_10_47"/>
<feBlend mode="normal" in="SourceGraphic" in2="effect1_dropShadow_10_47" result="shape"/>
</filter>
</defs>
</svg>